<svg class="svg-icon" style="width: 1em; height: 1em;vertical-align: middle;fill: currentColor;overflow: hidden;"
    viewBox="0 0 1024 1024" version="1.1" xmlns="http://www.w3.org/2000/svg">
    <path fill="#3470ff"
        d="M703.001 717 592.013 568.412l1.164-0.124C657.479 547.539 704 487.207 704 416c0-88.366-71.634-160-160-160L416 256c-17.673 0-32 14.327-32 32l0 448c0 17.673 14.327 32 32 32s32-14.327 32-32L448 576l68.889 0 134.912 179.399c10.604 14.139 30.661 17.004 44.799 6.4C710.739 751.196 713.604 731.138 703.001 717zM448 512 448 320l96 0c53.02 0 96 42.98 96 96s-42.98 96-96 96L448 512z" />
</svg>