<svg aria-hidden="true" style="position: absolute; width: 0; height: 0; overflow: hidden;" version="1.1"
    xmlns="http://www.w3.org/2000/svg" xmlns:xlink="http://www.w3.org/1999/xlink">
    <defs>
        <symbol id="icon-logo" viewBox="0 0 32 32">
            <path fill="#3470ff"
                d="M16 2c-7.732 0-14 6.268-14 14s6.268 14 14 14 14-6.268 14-14-6.268-14-14-14zM16 28c-6.627 0-12-5.373-12-12s5.373-12 12-12c6.627 0 12 5.373 12 12s-5.373 12-12 12z">
            </path>
            <path fill="#3470ff"
                d="M21.969 22.406l-3.468-4.643 0.036-0.004c2.009-0.648 3.463-2.534 3.463-4.759 0-2.761-2.239-5-5-5h-4c-0.552 0-1 0.448-1 1v14c0 0.552 0.448 1 1 1s1-0.448 1-1v-5h2.153l4.216 5.606c0.331 0.442 0.958 0.531 1.4 0.2s0.531-0.958 0.2-1.4zM14 16v-6h3c1.657 0 3 1.343 3 3s-1.343 3-3 3h-3z">
            </path>
        </symbol>
    </defs>
</svg>